<svg xmlns="http://www.w3.org/2000/svg" width="2500" height="2500" viewBox="0 0 999.937 999.937" role="img" aria-label="GitHub logo"><path d="M0 499.968c0-138.012 48.825-255.843 146.476-353.493C244.125 48.825 361.956 0 499.969 0 637.98 0 755.811 48.825 853.462 146.475c97.649 97.65 146.475 215.481 146.475 353.493s-48.825 255.843-146.475 353.493c-97.65 97.65-215.481 146.476-353.493 146.476-138.013 0-255.844-48.825-353.493-146.476C48.825 755.812 0 637.979 0 499.968zm54.684 0c0 122.389 43.617 227.199 130.851 314.434 87.234 87.233 192.045 130.851 314.434 130.851 122.388 0 227.199-43.617 314.433-130.851 87.234-87.234 130.851-192.045 130.851-314.434 0-122.388-43.616-227.199-130.851-314.433C727.168 98.301 622.356 54.684 499.969 54.684c-122.389 0-227.199 43.617-314.434 130.851C98.301 272.769 54.684 377.58 54.684 499.968zm140.617 107.415c-2.604-2.604-2.604-5.208 0-7.812 5.207-5.208 11.718-7.161 19.529-5.859 7.812 1.302 12.369 2.604 13.671 3.906 9.114 3.906 19.205 12.694 30.271 26.366 11.066 13.671 19.855 23.11 26.366 28.318 31.248 26.04 63.146 27.993 95.696 5.859 2.604-9.114 6.836-16.926 12.694-23.437 5.858-6.51 11.393-11.066 16.601-13.671 5.209-2.604 14.323-6.51 27.343-11.718-42.967-3.906-77.795-11.393-104.486-22.46s-47.849-25.063-63.473-41.989c-20.832-23.436-33.527-54.033-38.084-91.791-4.558-37.758-1.628-72.261 8.789-103.509 7.812-19.53 18.879-37.106 33.2-52.731-10.416-32.55-8.463-69.657 5.859-111.321 41.664 2.604 79.422 16.926 113.274 42.966 65.1-16.926 132.804-17.577 203.111-1.953 9.114-6.51 23.111-14.647 41.989-24.413 18.879-9.765 42.641-15.299 71.285-16.601 5.208 14.322 8.789 31.248 10.742 50.778s.977 37.758-2.929 54.684c29.945 31.248 45.569 72.912 46.871 124.992 0 41.664-7.16 76.167-21.482 103.509s-39.711 50.127-76.167 68.354c-24.738 11.719-57.288 18.879-97.65 21.483 18.229 9.114 31.574 18.554 40.037 28.319 8.464 9.765 13.997 25.063 16.602 45.895v61.521l1.952 59.566c3.906 6.511 8.464 12.044 13.672 16.602 5.208 4.557 9.765 7.812 13.671 9.765 3.905 1.953 5.208 4.883 3.905 8.789-1.302 3.906-6.51 5.859-15.62 5.859-9.114 0-16.926-2.929-23.437-8.789-6.51-5.859-10.742-12.369-12.694-19.531-6.51-28.319-18.879-46.871-37.107-55.664-18.229-8.789-39.061-15.299-62.5-19.531-3.906 11.718-11.718 21.482-23.437 29.297-11.718 7.812-27.343 11.718-46.872 11.718-16.927 0-30.599-3.906-41.666-11.718-11.068-7.812-16.602-17.577-16.602-29.297 0-7.812 2.604-16.602 7.812-26.367 5.208-9.765 12.369-18.229 21.482-25.391-34.503-5.207-61.195-14.322-80.079-27.344-18.879-13.022-33.201-29.948-42.966-50.778-10.417-25.39-14.323-53.709-11.719-84.899 0-10.416 1.302-20.182 3.906-29.297 2.603-9.114 6.51-17.577 11.719-25.39 10.416 0 20.182 2.604 29.297 7.812 9.114 5.208 16.925 13.671 23.437 25.39 6.51 11.719 13.021 20.182 19.531 25.39s16.602 8.789 25.39 10.742c9.114 1.953 17.577 2.929 25.39 2.929 7.812 0 14.322-.976 19.531-2.929 5.208-1.953 10.416-4.883 15.624-8.789 8.789-6.51 15.299-14.647 19.531-24.412 4.232-9.766 6.51-20.833 6.51-33.201 0-21.482-6.51-39.711-19.531-54.684-13.021-14.973-31.248-24.737-54.684-29.297-10.416-2.604-18.229-6.51-23.437-11.718-5.208-5.209-7.812-13.672-7.812-25.39 0-7.812 1.953-15.624 5.859-23.437 10.416-24.74 35.156-39.062 73.219-42.969 16.926-3.906 32.55-1.302 46.872 7.812 14.322 9.114 24.737 16.926 31.247 23.437s13.021 15.299 15.625 24.413c14.322 0 27.343 3.906 39.062 11.718 11.719 7.812 20.182 18.229 25.39 31.248 0 2.604 1.302 3.906 3.906 3.906h3.906c1.953 0 3.906-1.302 5.859-3.906 1.953-2.604 2.929-5.208 2.929-7.812 0-6.51-4.882-16.926-14.647-31.248-9.766-14.323-19.531-24.738-29.297-31.248-9.766-6.51-16.276-10.416-19.531-11.719-3.906-1.302-5.859-3.906-5.859-7.812 0-3.906 2.929-7.161 8.789-9.766 5.858-2.604 11.393-3.906 16.601-3.906 7.812 0 16.601 2.929 26.367 8.789 9.765 5.859 17.577 13.021 23.437 21.484 5.859 8.463 10.416 17.577 13.671 27.344 3.906 9.765 5.859 19.531 5.859 29.297 0 26.04-8.789 49.48-26.367 70.312-17.577 20.832-38.409 35.154-62.5 42.966-16.926 5.208-28.645 11.718-35.156 19.531-6.51 7.812-9.765 15.624-9.765 23.437 0 11.719 1.953 22.135 5.859 31.248 3.906 9.114 8.464 16.926 13.672 23.437 5.208 6.51 11.718 11.719 19.531 15.625 7.812 3.906 15.624 5.859 23.437 5.859 7.812 0 15.624-2.929 23.437-8.789 7.812-5.859 12.369-13.671 13.671-23.437 2.604-11.718 8.789-16.926 18.554-15.624 9.766 1.302 18.229 5.859 25.391 13.671 7.161 7.812 10.742 15.624 10.742 23.437 0 9.114-3.906 17.577-11.719 25.391-7.812 7.812-18.229 13.021-31.248 15.625-13.021 2.603-25.391 3.905-37.11 3.905-24.739 0-48.179-6.51-70.313-19.531-22.135-13.021-40.363-31.248-54.684-54.684-14.322-23.437-21.483-49.479-21.483-78.126 0-28.319 7.161-55.661 21.483-82.03 14.322-26.367 32.55-47.199 54.684-62.5 22.135-15.299 48.175-24.413 78.126-27.343 10.416-1.302 15.624-5.859 15.624-13.671 0-7.812-4.883-11.718-14.647-11.718-7.812 0-16.602 2.604-26.367 7.812-9.765 5.208-18.229 11.718-25.39 19.53-7.161 7.813-12.369 16.927-15.624 27.344-3.906 10.416-5.858 21.483-5.858 33.201 0 7.812-4.883 14.323-14.647 19.531-9.766 5.208-19.531 7.811-29.297 7.811-9.766 0-18.229-2.603-25.39-7.811-7.161-5.208-10.742-12.369-10.742-21.483 0-9.114 2.929-18.229 8.789-27.344 5.858-9.114 13.671-18.229 23.437-27.344 9.766-9.114 20.182-17.577 31.249-25.39 11.067-7.812 24.089-13.671 39.062-17.577 14.974-3.906 30.599-5.858 46.874-5.858 22.135 0 42.967 4.882 62.5 14.647 19.531 9.765 35.156 22.784 46.874 39.062 11.718 16.277 20.182 39.062 25.39 68.356 5.208 29.297 5.208 57.616 0 84.899-5.208 27.344-14.322 51.434-27.344 72.266-13.021 20.833-28.645 38.411-46.874 52.733-18.229 14.323-41.664 24.738-70.313 31.248-28.645 6.51-53.385 6.51-74.218 0-20.833-6.51-37.11-16.927-48.828-31.249-11.719-14.322-20.182-32.55-25.39-54.684-5.208-22.135-5.208-44.27 0-66.405 5.208-22.135 15.624-42.967 31.248-62.5 15.625-19.531 35.156-34.504 58.594-44.27 23.437-9.766 47.527-14.323 72.266-13.671 8.789 0 16.601 1.953 23.437 5.859 6.836 3.906 10.742 9.114 11.718 15.624 0 7.813-3.906 15.626-11.718 23.438-7.812 7.812-17.577 13.021-29.297 15.624-11.718 2.604-24.738 2.604-39.062 0-14.323-2.604-27.344-6.51-39.062-11.718-11.718-5.208-20.182-11.718-25.39-19.53-5.208-7.813-7.812-16.927-7.812-27.344 0-11.718 3.906-20.182 11.718-25.39 7.812-5.208 18.229-7.812 31.248-7.812 7.812 0 15.624 1.302 23.437 3.906 7.812 2.603 13.671 7.161 17.577 13.671 3.906 6.51 5.859 13.672 5.859 21.483 0 8.789-2.604 16.927-7.812 24.739-5.208 7.813-12.369 13.672-21.483 17.577-9.114 3.906-18.229 5.859-27.344 5.859-9.114 0-17.577-2.603-25.39-7.811-7.812-5.208-10.742-10.416-10.742-15.624 0-5.209 1.953-9.766 5.859-13.671 3.906-3.906 9.114-5.859 15.624-5.859 5.208 0 9.766 2.604 13.671 7.812 3.906 5.208 5.859 9.115 5.859 11.719 0 2.604 0 4.883 0 6.836-1.953 3.906-6.51 6.51-13.671 7.812-7.161 1.302-13.671 1.302-19.53 0-8.789-2.604-15.624-7.812-20.833-15.624-5.208-7.813-7.812-17.577-7.812-29.297 0-11.718 3.906-20.182 11.718-25.39 7.812-5.208 16.276-7.812 25.39-7.812 9.114 0 18.229 2.603 27.344 7.812 9.114 5.208 16.926 11.718 22.135 19.531 5.208 7.812 7.812 15.625 7.812 23.437 0 11.718-4.883 23.437-14.647 35.156-9.766 11.718-23.437 21.483-41.666 29.297-18.229 7.812-38.409 11.718-60.546 11.718-22.136 0-42.968-3.906-62.498-11.718-19.531-7.812-35.156-19.531-46.874-35.156-11.718-15.624-18.229-34.503-19.531-56.64-1.302-22.135 4.883-41.666 17.577-58.594 12.694-16.927 30.271-29.297 52.732-37.107 22.46-7.812 45.902-11.718 70.313-11.718 24.739 0 46.873 5.208 66.407 15.624 19.531 10.416 35.156 24.738 46.874 42.966 11.719 18.229 18.229 39.062 19.531 62.5 1.302 23.437 0 44.27-3.906 62.5-3.906 18.229-10.416 33.201-19.53 44.92-9.114 11.718-20.181 20.182-33.2 25.39-13.021 5.208-27.343 7.812-42.966 7.812-15.624 0-29.296-2.604-41.015-7.812-11.718-5.208-20.182-13.021-25.39-23.437-5.208-10.416-7.812-23.437-7.812-39.062 0-14.322 3.906-26.367 11.718-36.133 7.812-9.765 18.229-15.624 31.249-17.577 13.02-1.953 23.437-1.953 31.249 0 7.812 1.953 13.671 5.859 17.577 11.718 3.906 5.859 6.51 13.672 7.812 23.438 1.302 9.765 0 19.531-3.906 29.297-3.906 9.765-11.719 17.577-23.437 23.437-11.719 5.858-24.739 8.789-39.062 8.789-14.323 0-28.645-2.604-42.967-7.812-14.322-5.208-25.39-13.021-33.201-23.437-7.812-10.416-11.718-23.437-11.718-39.062 0-12.369 3.906-24.088 11.718-35.156 7.812-11.068 19.531-20.833 35.156-29.297 15.625-8.463 34.504-13.671 56.64-15.624 22.135-1.953 42.967 1.302 62.5 8.789 19.531 7.812 34.503 19.531 44.27 35.156 9.765 15.625 14.322 35.156 13.671 58.594-1.302 28.319-10.416 53.059-27.344 74.218-16.926 21.483-39.062 36.456-66.406 44.27-27.344 7.812-56.64 8.789-87.89 1.953-31.249-6.836-57.289-20.833-78.126-41.666-20.833-20.833-35.156-46.874-42.968-78.126-7.813-31.249-7.813-62.5 0-93.75 7.812-31.249 22.135-58.593 42.967-82.03 20.833-23.437 46.874-41.665 78.126-54.684 31.251-13.021 64.452-20.182 99.609-21.484 35.156-1.302 68.358 3.906 99.609 15.624 31.249 11.718 57.289 28.645 78.126 50.778 20.833 22.135 35.156 48.176 42.969 78.126 7.812 29.297 7.812 60.547 0 93.75-7.812 33.2-22.135 63.151-42.969 89.843-20.833 26.692-46.872 47.524-78.126 62.498-31.251 14.974-64.452 24.738-99.609 29.296-35.156 4.883-68.358 5.859-99.609 2.929-31.249-2.929-60.546-11.393-87.89-25.39-27.343-13.997-49.478-33.2-66.406-57.289-16.927-24.088-27.343-50.128-31.248-78.126-3.906-28.319-2.929-56.64 2.929-84.899 5.859-28.319 16.276-53.059 31.248-74.218 14.974-21.483 34.505-39.711 58.594-54.684 24.089-14.973 51.433-25.39 82.031-31.249 30.599-5.859 62.5-7.812 95.703-5.859 33.203 2.604 64.452 8.789 93.75 18.554 29.297 9.765 54.684 23.437 76.171 40.365 21.485 16.926 37.109 38.41 46.874 64.452 9.766 26.041 12.369 54.684 7.812 85.938-4.883 31.248-16.602 59.566-35.156 84.899-18.554 25.39-42.968 44.27-73.218 56.64-30.249 12.369-62.5 17.577-96.677 15.625-34.179-1.953-64.452-9.114-90.493-21.484-26.042-12.369-46.874-29.297-62.5-50.778-15.625-21.482-23.438-45.572-23.438-72.266 0-26.041 7.161-49.481 21.484-70.313 14.323-20.833 33.2-37.76 56.64-50.779 23.438-13.021 49.481-20.182 78.126-21.484 28.645-1.302 56.64 2.604 83.984 11.718 27.344 9.114 50.776 23.437 70.312 42.97 19.531 19.531 33.2 43.621 40.363 72.266 7.161 28.645 7.161 57.289 0 85.937-7.161 28.645-21.484 53.385-42.966 74.218-21.483 20.833-47.524 36.456-78.126 46.872-30.599 10.416-63.802 15.624-99.609 15.624-35.156 0-68.358-6.51-99.61-19.531-31.248-13.021-58.593-30.598-82.03-52.731-23.437-22.135-41.666-48.176-54.683-78.126-13.021-29.297-20.182-61.198-21.484-95.703-1.302-34.505 4.882-67.708 18.229-99.609 13.351-31.251 31.577-58.594 54.69-82.031 23.113-23.436 50.458-41.664 82.031-54.684 31.572-13.02 65.75-20.182 102.539-21.484 36.79-1.302 71.292 5.858 103.516 21.483 32.225 15.625 59.568 37.108 82.031 64.452 22.462 27.343 38.086 59.565 46.874 96.677 8.787 37.107 9.765 76.171 2.929 117.188-6.836 41.015-21.483 78.126-43.944 112.304-22.46 34.178-49.804 61.523-81.977 82.031-32.174 20.508-67.708 32.227-106.771 35.156-39.063 2.929-76.173-2.929-111.329-15.625-35.156-12.694-66.406-31.248-93.75-55.664-27.344-24.414-47.524-53.711-60.546-87.89-13.021-34.18-17.577-71.291-14.648-111.329 2.929-40.037 14.649-77.148 35.157-111.329 20.508-34.18 47.852-61.523 81.977-82.031 34.18-20.508 71.292-31.249 111.329-33.2 40.037-1.953 77.148 5.859 111.329 23.437 34.18 17.577 62.5 42.97 84.899 76.171 22.399 33.2 35.157 71.292 38.086 114.258 2.929 42.966-5.859 84.899-24.413 125.976-18.554 41.015-47.852 75.195-87.89 102.539-40.037 27.344-86.915 44.272-140.625 50.778-53.71 6.509-104.491-1.302-152.344-22.135-47.852-20.833-86.915-53.711-117.188-98.634-30.272-44.924-45.57-95.704-46.872-152.344-1.302-56.641 12.694-110.351 39.063-161.132 26.367-50.779 64.451-91.797 115.233-123.047 50.778-31.249 107.422-49.478 170.898-54.684 63.477-5.208 126.953 3.906 190.429 26.367 63.477 22.461 117.188 58.594 161.132 108.399 43.944 49.805 71.288 109.375 81.704 178.711 10.416 69.336 5.859 140.625-14.648 213.868-20.508 73.243-57.617 138.671-111.328 196.289-53.711 57.617-118.164 96.68-193.36 117.188-75.195 20.508-153.645 22.46-234.375 5.858-80.729-16.602-151.367-49.479-211.914-98.633-60.547-49.154-103.515-107.422-128.906-174.805-25.39-67.383-29.297-138.672-11.719-213.869 17.577-75.195 53.71-142.578 108.399-202.148 54.687-59.571 124.024-103.516 208.985-131.836 84.961-28.32 176.758-35.156 266.602-20.833 89.844 14.323 171.875 48.176 246.094 102.539 74.218 54.362 128.906 122.07 164.062 202.148 35.156 80.078 50.778 167.969 46.871 263.672-3.906 95.703-31.249 184.57-81.999 265.625-50.779 81.055-119.141 144.532-205.079 190.429-85.937 45.898-183.594 67.383-292.969 64.452-109.375-2.929-211.914-33.201-307.617-90.821-95.703-57.617-169.922-133.789-223.633-228.516-53.711-94.727-78.125-201.172-73.243-319.336 4.883-118.164 38.086-226.562 99.609-325.195 61.523-98.633 145.508-172.852 251.953-221.68 106.445-48.828 223.633-73.242 351.562-73.242 127.93 0 248.047 24.414 359.375 73.242 111.329 48.829 205.079 117.188 281.25 205.079 76.172 87.89 127.93 192.383 155.274 313.476 27.344 121.094 27.344 246.094 0 375.977-27.344 129.883-81.999 247.07-163.086 351.562C829.102 906.25 744.14 965.82 641.602 999.999 539.064 1034.18 437.5 1043.29 335.938 1027.67 234.375 1012.05 140.625 972.656 54.687 909.179 31.249 883.789 12.694 856.445 0 827.148V499.968Z" fill="#0F172A"/></svg>
