<svg xmlns="http://www.w3.org/2000/svg" viewBox="0 0 256 256" role="img" aria-label="MongoDB logo">
  <rect width="256" height="256" rx="36" fill="#111827"/>
  <path d="M128 40c-18 0-32 8-40 20 12 4 20 12 24 24 6-10 16-16 28-16 12 0 22 6 28 16 4-12 12-20 24-24-8-12-22-20-40-20Z" fill="#4CAF50"/>
  <path d="M128 68c-18 0-32 12-32 28 0 12 8 22 20 27v38c0 8 6 16 16 16 10 0 16-8 16-16v-38c12-5 20-15 20-27 0-16-14-28-32-28Zm0 16c8 0 14 4 14 10 0 6-6 10-14 10s-14-4-14-10c0-6 6-10 14-10Z" fill="#4CAF50"/>
  <path d="M104 164c10 14 18 24 24 40 8-16 16-26 24-40-16 6-32 6-48 0Z" fill="#8BC34A"/>
</svg>
